# xmcd
#
# Track frame offsets:
#	150
#	10222
#	20805
#	32537
#	42800
#	54420
#	66262
#	76072
#	87112
#	97765
#	108362
#	119757
#	134685
#	143390
#	154285
#	169110
#	184500
#	192902
#	204607
#	214382
#	225034
#	234812
#	248955
#	258975
#	272247
#
# Disc length: 3781 seconds
#
# Revision: 1
# Processed by: cddbd v1.5.2PL0 Copyright (c) Steve Scherf et al.
# Submitted via: audiograbber 1.83.01
#
DISCID=4c0ec319
DTITLE=Ivan Mladek - Banjo Band Story
DYEAR=2006
DGENRE=Country
TTITLE0=Zkratky
TTITLE1=Bambus
TTITLE2=Pravdomluvne vino  
TTITLE3=Cyril jedl cerel 
TTITLE4=Pisen chmeloveho vlka  
TTITLE5=Hlasna Treban  
TTITLE6=Smidli boys  
TTITLE7=Devce ze samoobsluhy
TTITLE8=V jadru
TTITLE9=Banjo, ja se s tebou loucim
TTITLE10=Nu, nu, nu
TTITLE11=Dasa Novakova
TTITLE12=Bily tatinek
TTITLE13=Aerobic
TTITLE14=Nejkrasnejsi obdobi je podzim   
TTITLE15=Kolecko po Vaclavskem namesti
TTITLE16=Japonci v Jablonci
TTITLE17=Pritel fort
TTITLE18=Do hlavy ne  
TTITLE19=Svagr ma bagr
TTITLE20=Davaj na Havaj  
TTITLE21=Lada jede lodí
TTITLE22=Ja mam rada kompjutr
TTITLE23=Zmalovana
TTITLE24=Jozin z bazin
EXTD=CD2
EXTT0=
EXTT1=
EXTT2=
EXTT3=
EXTT4=
EXTT5=
EXTT6=
EXTT7=
EXTT8=
EXTT9=
EXTT10=
EXTT11=
EXTT12=
EXTT13=
EXTT14=
EXTT15=
EXTT16=
EXTT17=
EXTT18=
EXTT19=
EXTT20=
EXTT21=
EXTT22=
EXTT23=
EXTT24=CD2
PLAYORDER=
